<?xml version="1.0" encoding="utf-8"?>
<!-- Generator: Adobe Illustrator 16.0.4, SVG Export Plug-In . SVG Version: 6.00 Build 0)  -->
<!DOCTYPE svg PUBLIC "-//W3C//DTD SVG 1.1//EN" "http://www.w3.org/Graphics/SVG/1.1/DTD/svg11.dtd">
<svg version="1.1" id="Слой_1" xmlns="http://www.w3.org/2000/svg" xmlns:xlink="http://www.w3.org/1999/xlink" x="0px" y="0px"
	 width="283.46px" height="119.061px" viewBox="0 0 283.46 119.061" enable-background="new 0 0 283.46 119.061"
	 xml:space="preserve">
<g>
	<g>
		<g>
			<polygon fill="#984B47" points="40.171,41.422 69.593,41.422 54.901,15.523 			"/>
			<polygon fill="#984B47" points="39.727,103.805 70.4,104.345 54.901,78.182 			"/>
			<polygon fill="#984B47" points="81.49,41.422 96.199,41.422 96.22,15.523 			"/>
			<polygon fill="#984B47" points="13.737,41.422 28.447,41.422 13.755,15.523 			"/>
			<polygon fill="#984B47" points="19.875,72.766 49.303,72.766 34.611,46.865 			"/>
			<polygon fill="#984B47" points="60.526,72.766 89.951,72.766 75.256,46.865 			"/>
		</g>
		<g>
			<polygon fill="#496485" points="54.864,72.766 69.593,46.865 40.171,46.865 			"/>
			<path fill="#496485" d="M11.128,6.76v60.863c0,24.452,19.652,44.237,43.784,44.237c22.652,0,43.786-20.722,43.786-44.114v-0.751
				c0-16.335,0-60.235,0-60.235H11.128z M88.323,78.182H60.526l11.486,20.251c-5.151,3.021-11.025,4.758-17.1,4.758
				c-6.25,0-12.123-1.682-17.218-4.604l11.609-20.404H21.415c-1.019-3.322-1.571-6.85-1.571-10.504l0.005-5.689l8.599-15.123h-8.591
				l0.019-31.354h0.04l14.656,25.83l14.686-25.817l11.318,0.006l14.643,25.812l14.676-25.798h0.049l0.011,31.323H81.49l8.465,14.925
				l0.002,5.934C89.958,71.362,89.381,74.874,88.323,78.182z"/>
		</g>
	</g>
	<g enable-background="new    ">
		<path fill="#201600" d="M122.883,18.502V9.963h3.288v8.454c0,2.434,1.217,3.692,3.224,3.692c2.006,0,3.223-1.217,3.223-3.586
			V9.963h3.288v8.433c0,4.525-2.541,6.745-6.554,6.745S122.883,22.9,122.883,18.502z"/>
		<path fill="#201600" d="M139.258,9.963h3.288v6.532l6.062-6.532h3.971l-6.084,6.341l6.361,8.603h-3.949l-4.632-6.361l-1.729,1.793
			v4.568h-3.288V9.963z"/>
		<path fill="#201600" d="M154.842,9.963h6.831c1.9,0,3.373,0.534,4.355,1.516c0.832,0.833,1.28,2.007,1.28,3.459
			c0,2.412-1.302,3.928-3.202,4.632l3.65,5.337h-3.842l-3.245-4.781h-2.54v4.781h-3.288V9.963z M161.46,17.222
			c1.601,0,2.519-0.854,2.519-2.156c0-1.409-0.981-2.135-2.583-2.135h-3.266v4.291H161.46z"/>
		<path fill="#201600" d="M175.4,9.857h3.031l6.404,15.05h-3.437l-1.366-3.352h-6.318l-1.367,3.352h-3.352L175.4,9.857z
			 M178.859,18.652l-1.986-4.846l-1.984,4.846H178.859z"/>
		<path fill="#201600" d="M187.292,9.963h3.287v14.943h-3.287V9.963z"/>
		<path fill="#201600" d="M194.316,9.963h3.031l7.002,9.201V9.963h3.244v14.943h-2.797l-7.236-9.499v9.499h-3.244V9.963z"/>
		<path fill="#201600" d="M211.33,9.963h3.288v14.943h-3.288V9.963z"/>
		<path fill="#201600" d="M223.478,9.857h3.031l6.404,15.05h-3.438l-1.366-3.352h-6.319l-1.365,3.352h-3.352L223.478,9.857z
			 M226.935,18.652l-1.984-4.846l-1.985,4.846H226.935z"/>
		<path fill="#201600" d="M235.219,9.963h3.031l7.002,9.201V9.963h3.245v14.943h-2.797l-7.236-9.499v9.499h-3.245V9.963z"/>
	</g>
	<g enable-background="new    ">
		<path fill="#201600" d="M123.118,38.428h11.378v2.989h-8.09v3.181h7.13v2.988h-7.13v5.785h-3.288V38.428z"/>
		<path fill="#201600" d="M137.272,38.428h3.288v14.943h-3.288V38.428z"/>
		<path fill="#201600" d="M144.296,38.428h6.83c1.9,0,3.373,0.534,4.355,1.516c0.832,0.833,1.281,2.007,1.281,3.459
			c0,2.412-1.303,3.928-3.203,4.632l3.65,5.337h-3.842l-3.244-4.781h-2.541v4.781h-3.287V38.428z M150.914,45.687
			c1.602,0,2.52-0.854,2.52-2.156c0-1.409-0.982-2.135-2.584-2.135h-3.266v4.291H150.914z"/>
		<path fill="#201600" d="M159.731,38.428h11.271v2.925h-8.005v3.031h7.045v2.925h-7.045v3.138h8.111v2.925h-11.378V38.428z"/>
	</g>
	<g enable-background="new    ">
		<path fill="#201600" d="M123.118,66.893h6.105c3.565,0,5.721,2.114,5.721,5.209c0,3.458-2.69,5.252-6.042,5.252h-2.498v4.482
			h-3.288V66.893z M129.01,74.429c1.644,0,2.604-0.982,2.604-2.306c0-1.473-1.024-2.263-2.668-2.263h-2.541v4.568H129.01z"/>
		<path fill="#201600" d="M137.379,66.893h6.832c1.899,0,3.373,0.534,4.354,1.516c0.833,0.833,1.28,2.007,1.28,3.459
			c0,2.412-1.302,3.928-3.201,4.632l3.65,5.337h-3.843l-3.245-4.781h-2.54v4.781h-3.288V66.893z M143.997,74.152
			c1.601,0,2.519-0.854,2.519-2.156c0-1.409-0.981-2.135-2.582-2.135h-3.267v4.291H143.997z"/>
		<path fill="#201600" d="M152.152,74.365c0-4.248,3.352-7.728,7.963-7.728s7.92,3.437,7.92,7.728c0,4.248-3.352,7.728-7.963,7.728
			S152.152,78.656,152.152,74.365z M164.597,74.365c0-2.562-1.878-4.696-4.525-4.696c-2.646,0-4.482,2.092-4.482,4.696
			c0,2.562,1.879,4.696,4.525,4.696S164.597,76.969,164.597,74.365z"/>
		<path fill="#201600" d="M173.8,69.924h-4.548v-3.031h12.382v3.031h-4.547v11.912H173.8V69.924z"/>
		<path fill="#201600" d="M184.154,66.893h11.271v2.925h-8.006v3.031h7.045v2.925h-7.045v3.138h8.112v2.925h-11.378V66.893z"/>
		<path fill="#201600" d="M197.795,74.365c0-4.248,3.202-7.728,7.792-7.728c2.817,0,4.396,1.067,5.785,2.434l-1.965,2.263
			c-1.152-1.046-2.135-1.665-3.842-1.665c-2.52,0-4.334,2.092-4.334,4.696c0,2.562,1.771,4.696,4.334,4.696
			c1.707,0,2.754-0.683,3.928-1.75l2.092,2.241c-1.537,1.644-3.244,2.54-6.127,2.54C201.062,82.092,197.795,78.698,197.795,74.365z"
			/>
		<path fill="#201600" d="M217.693,69.924h-4.548v-3.031h12.382v3.031h-4.547v11.912h-3.287V69.924z"/>
		<path fill="#201600" d="M228.196,66.893h3.288v14.943h-3.288V66.893z"/>
		<path fill="#201600" d="M234.558,74.365c0-4.248,3.352-7.728,7.962-7.728s7.92,3.437,7.92,7.728c0,4.248-3.352,7.728-7.962,7.728
			C237.867,82.092,234.558,78.656,234.558,74.365z M247.003,74.365c0-2.562-1.879-4.696-4.525-4.696
			c-2.647,0-4.483,2.092-4.483,4.696c0,2.562,1.878,4.696,4.525,4.696S247.003,76.969,247.003,74.365z"/>
		<path fill="#201600" d="M253.366,66.893h3.031l7.002,9.201v-9.201h3.245v14.943h-2.797l-7.236-9.499v9.499h-3.245V66.893z"/>
	</g>
	<g enable-background="new    ">
		<path fill="#496485" d="M123.477,101.138c0-2.791,2.136-5.154,5.14-5.154c1.737,0,2.804,0.484,3.83,1.353l-1.111,1.324
			c-0.769-0.655-1.523-1.067-2.79-1.067c-1.836,0-3.232,1.608-3.232,3.545c0,2.05,1.353,3.559,3.389,3.559
			c0.939,0,1.793-0.299,2.406-0.754v-1.865h-2.548v-1.523h4.243v4.186c-0.982,0.84-2.392,1.552-4.157,1.552
			C125.527,106.291,123.477,104.071,123.477,101.138z"/>
		<path fill="#496485" d="M137.069,96.155h4.442c2.334,0,3.702,1.253,3.702,3.175c0,1.638-0.982,2.62-2.378,3.019l2.69,3.772h-2.064
			l-2.477-3.474h-2.164v3.474h-1.751V96.155z M141.382,101.095c1.253,0,2.051-0.655,2.051-1.694c0-1.067-0.77-1.651-2.065-1.651
			h-2.548v3.346H141.382z"/>
		<path fill="#496485" d="M148.91,101.138c0-2.805,2.164-5.154,5.225-5.154s5.197,2.321,5.197,5.154
			c0,2.805-2.164,5.153-5.226,5.153C151.045,106.291,148.91,103.971,148.91,101.138z M157.494,101.138
			c0-1.937-1.408-3.545-3.388-3.545c-1.979,0-3.36,1.58-3.36,3.545c0,1.936,1.41,3.545,3.389,3.545S157.494,103.102,157.494,101.138
			z"/>
		<path fill="#496485" d="M163.285,101.892v-5.737h1.752v5.666c0,1.852,0.953,2.848,2.52,2.848c1.551,0,2.506-0.939,2.506-2.776
			v-5.737h1.75v5.652c0,2.976-1.68,4.47-4.285,4.47C164.936,106.277,163.285,104.782,163.285,101.892z"/>
		<path fill="#496485" d="M176.208,96.155h3.929c2.321,0,3.787,1.324,3.787,3.36c0,2.235-1.793,3.402-3.986,3.402h-1.979v3.203
			h-1.751V96.155z M179.995,101.337c1.323,0,2.149-0.74,2.149-1.809c0-1.167-0.84-1.779-2.149-1.779h-2.036v3.588H179.995z"/>
	</g>
</g>
</svg>
