<svg aria-hidden="true" style="position: absolute; width: 0; height: 0; overflow: hidden;" version="1.1" xmlns="http://www.w3.org/2000/svg" xmlns:xlink="http://www.w3.org/1999/xlink">
<defs>
<symbol id="icon-arrow" viewBox="0 0 60 32">
<path d="M55.345 1.787l-23.425 23.055c-0.511 0.506-1.201 0.789-1.92 0.789s-1.409-0.284-1.92-0.789l-23.425-23.050c-0.514-0.505-1.206-0.789-1.928-0.789s-1.413 0.283-1.927 0.789c-0.253 0.247-0.455 0.542-0.592 0.868s-0.208 0.676-0.208 1.030c0 0.354 0.071 0.704 0.208 1.030s0.339 0.621 0.592 0.868l23.42 23.050c1.543 1.515 3.618 2.363 5.78 2.363s4.237-0.849 5.78-2.363l23.42-23.050c0.254-0.247 0.456-0.542 0.594-0.869s0.209-0.677 0.209-1.031c0-0.354-0.071-0.705-0.209-1.031s-0.34-0.622-0.594-0.869c-0.514-0.505-1.206-0.789-1.928-0.789s-1.413 0.283-1.927 0.789z"></path>
</symbol>
<symbol id="icon-close" viewBox="0 0 32 32">
<path d="M5.020 1.125l10.98 10.98 10.923-10.923c0.241-0.257 0.532-0.462 0.854-0.604s0.671-0.217 1.023-0.221c0.754 0 1.478 0.3 2.011 0.833s0.833 1.257 0.833 2.011c0.007 0.349-0.058 0.695-0.19 1.018s-0.329 0.615-0.578 0.859l-11.065 10.923 11.065 11.065c0.469 0.459 0.744 1.080 0.768 1.735 0 0.754-0.3 1.478-0.833 2.011s-1.257 0.833-2.011 0.833c-0.362 0.015-0.724-0.045-1.062-0.178s-0.645-0.333-0.901-0.59l-10.837-10.979-10.951 10.951c-0.24 0.248-0.527 0.446-0.845 0.583s-0.659 0.209-1.004 0.213c-0.754 0-1.478-0.3-2.011-0.833s-0.833-1.257-0.833-2.011c-0.007-0.349 0.058-0.695 0.19-1.018s0.329-0.615 0.578-0.859l11.065-10.923-11.065-11.065c-0.469-0.459-0.744-1.080-0.768-1.735 0-0.754 0.3-1.478 0.833-2.011s1.257-0.833 2.011-0.833c0.683 0.009 1.337 0.284 1.82 0.768z"></path>
</symbol>
<symbol id="icon-menu" viewBox="0 0 32 32">
<path d="M2.051 4.513c-0.435 0-0.853 0.173-1.16 0.481s-0.481 0.725-0.481 1.16c0 0.435 0.173 0.853 0.481 1.16s0.725 0.481 1.16 0.481h27.898c0.435 0 0.853-0.173 1.16-0.481s0.481-0.725 0.481-1.16-0.173-0.853-0.481-1.16c-0.308-0.308-0.725-0.481-1.16-0.481h-27.898zM0.41 16c0-0.435 0.173-0.853 0.481-1.16s0.725-0.481 1.16-0.481h27.898c0.435 0 0.853 0.173 1.16 0.481s0.481 0.725 0.481 1.16-0.173 0.853-0.481 1.16c-0.308 0.308-0.725 0.481-1.16 0.481h-27.898c-0.435 0-0.853-0.173-1.16-0.481s-0.481-0.725-0.481-1.16zM0.41 25.848c0-0.435 0.173-0.853 0.481-1.16s0.725-0.481 1.16-0.481h27.898c0.435 0 0.853 0.173 1.16 0.481s0.481 0.725 0.481 1.16c0 0.435-0.173 0.853-0.481 1.16s-0.725 0.481-1.16 0.481h-27.898c-0.435 0-0.853-0.173-1.16-0.481s-0.481-0.725-0.481-1.16z"></path>
</symbol>
</defs>
</svg>
